<?xml version="1.0" encoding="utf-8"?>
<!-- Generator: Adobe Illustrator 28.3.0, SVG Export Plug-In . SVG Version: 6.00 Build 0)  -->
<svg version="1.1" id="Layer_1" xmlns="http://www.w3.org/2000/svg" xmlns:xlink="http://www.w3.org/1999/xlink" x="0px" y="0px"
	 viewBox="0 0 20.8 20.8" style="enable-background:new 0 0 20.8 20.8;" xml:space="preserve">
<style type="text/css">
	.st0{fill:#272525;}
	.st1{fill:none;stroke:#000000;stroke-miterlimit:10;}
	.st2{stroke:#272525;stroke-width:1.5;stroke-miterlimit:10;}
	.st3{fill:#222221;}
	.st4{fill:#FFFFFF;}
</style>
<g id="XMLID_00000150101499677345298060000018374632213277323167_">
	<path id="XMLID_00000159451609905876154910000000093610625320279724_" d="M10.4,1.9c2.8,0,3.1,0,4.2,0.1c1,0,1.6,0.2,1.9,0.4
		c0.5,0.2,0.8,0.4,1.2,0.8c0.4,0.4,0.6,0.7,0.8,1.2c0.1,0.4,0.3,0.9,0.4,1.9C19,7.4,19,7.7,19,10.5s0,3.1-0.1,4.2
		c0,1-0.2,1.6-0.4,1.9c-0.2,0.5-0.4,0.8-0.8,1.2s-0.7,0.6-1.2,0.8c-0.4,0.1-0.9,0.3-1.9,0.4c-1.1,0.1-1.4,0.1-4.2,0.1
		s-3.1,0-4.2-0.1c-1,0-1.6-0.2-1.9-0.4c-0.5-0.2-0.8-0.4-1.2-0.8c-0.4-0.4-0.6-0.7-0.8-1.2c-0.1-0.4-0.3-0.9-0.4-1.9
		c-0.1-1.1-0.1-1.4-0.1-4.2s0-3.1,0.1-4.2c0-1,0.2-1.6,0.4-1.9c0.2-0.5,0.4-0.8,0.8-1.2c0.4-0.4,0.7-0.6,1.2-0.8
		C4.7,2.3,5.2,2.1,6.2,2C7.3,1.9,7.6,1.9,10.4,1.9 M10.4,0C7.6,0,7.2,0,6.1,0.1S4.2,0.3,3.6,0.6C2.9,0.9,2.3,1.2,1.8,1.8
		C1.2,2.4,0.9,3,0.6,3.6C0.3,4.3,0.2,5,0.1,6.1S0,7.6,0,10.4s0,3.2,0.1,4.3s0.2,1.9,0.5,2.5c0.3,0.7,0.6,1.3,1.2,1.8
		s1.2,0.9,1.8,1.2c0.7,0.3,1.4,0.4,2.5,0.5s1.5,0.1,4.3,0.1s3.2,0,4.3-0.1s1.9-0.2,2.5-0.5c0.7-0.3,1.3-0.6,1.8-1.2s0.9-1.2,1.2-1.8
		c0.3-0.7,0.4-1.4,0.5-2.5s0.1-1.5,0.1-4.3s0-3.2-0.1-4.3s-0.2-1.9-0.5-2.5c-0.3-0.7-0.6-1.3-1.2-1.8c-0.6-0.6-1.2-0.9-1.8-1.2
		c-0.7-0.3-1.4-0.4-2.5-0.5S13.3,0,10.4,0"/>
	<path id="XMLID_00000135661118070471274450000002285502399840728510_" d="M10.4,5.1c-3,0-5.4,2.4-5.4,5.4s2.4,5.4,5.4,5.4
		s5.4-2.4,5.4-5.4S13.4,5.1,10.4,5.1 M10.4,13.9c-1.9,0-3.5-1.6-3.5-3.5s1.6-3.5,3.5-3.5s3.5,1.6,3.5,3.5S12.3,13.9,10.4,13.9"/>
	<path id="XMLID_00000182529368349519302960000015397308844625443260_" d="M17.2,4.9c0,0.7-0.6,1.3-1.3,1.3c-0.7,0-1.3-0.6-1.3-1.3
		s0.6-1.3,1.3-1.3S17.2,4.2,17.2,4.9"/>
</g>
</svg>
