<?xml version="1.0" encoding="utf-8"?>
<!-- Generator: Adobe Illustrator 28.3.0, SVG Export Plug-In . SVG Version: 6.00 Build 0)  -->
<svg version="1.1" id="Layer_1" xmlns="http://www.w3.org/2000/svg" xmlns:xlink="http://www.w3.org/1999/xlink" x="0px" y="0px"
	 viewBox="0 0 221.5 221.5" style="enable-background:new 0 0 221.5 221.5;" xml:space="preserve">
<style type="text/css">
	.st0{fill:#272525;}
	.st1{fill:none;stroke:#000000;stroke-miterlimit:10;}
	.st2{stroke:#272525;stroke-width:1.5;stroke-miterlimit:10;}
	.st3{fill:#222221;}
	.st4{fill:#FFFFFF;}
	.st5{fill:#4E3535;}
	.st6{fill:#F0F0F0;}
	.st7{fill:#D4D4D4;}
	.st8{fill:#5F6368;}
	.st9{fill:#4285F4;}
	.st10{fill:#34A853;}
	.st11{fill:#FBBC04;}
	.st12{fill:#EA4335;}
	.st13{fill:#565656;}
	.st14{fill:#D50172;}
	.st15{fill:url(#SVGID_1_);}
	.st16{fill:#FF5A00;}
	.st17{fill:#EB001B;}
	.st18{fill:#F79E1B;}
	.st19{fill:#003087;}
	.st20{fill:#0070E0;}
	.st21{fill:#F4A929;}
	.st22{fill:#1B4DA2;}
	.st23{fill:#333333;}
	.st24{fill:#3A9BD9;}
	.st25{fill:#CC2131;}
</style>
<g id="XMLID_00000173162487599855097660000009395833822727113874_">
	<path id="XMLID_00000181080050505282370520000010234285930837159604_" class="st5" d="M110.7,20.2c29.8,0,33,0,44.7,1.1
		c10.6,0,17,2.1,20.2,4.3c5.3,2.1,8.5,4.3,12.8,8.5c4.3,4.3,6.4,7.5,8.5,12.8c1.1,4.3,3.2,9.6,4.3,20.2c1.1,11.7,1.1,14.9,1.1,44.7
		s0,33-1.1,44.7c0,10.6-2.1,17-4.3,20.2c-2.1,5.3-4.3,8.5-8.5,12.8s-7.5,6.4-12.8,8.5c-4.3,1.1-9.6,3.2-20.2,4.3
		c-11.7,1.1-14.9,1.1-44.7,1.1s-33,0-44.7-1.1c-10.6,0-17-2.1-20.2-4.3c-5.3-2.1-8.5-4.3-12.8-8.5c-4.3-4.3-6.4-7.5-8.5-12.8
		c-1.1-4.3-3.2-9.6-4.3-20.2c-1.1-11.7-1.1-14.9-1.1-44.7s0-33,1.1-44.7c0-10.6,2.1-17,4.3-20.2c2.1-5.3,4.3-8.5,8.5-12.8
		c4.3-4.3,7.5-6.4,12.8-8.5c4.3-1.1,9.6-3.2,20.2-4.3C77.7,20.2,80.9,20.2,110.7,20.2 M110.7,0C80.9,0,76.7,0,65,1.1
		S44.7,3.2,38.3,6.4c-7.5,3.2-13.8,6.4-19.2,12.8c-6.4,6.4-9.6,12.8-12.8,19.2C3.2,45.8,2.1,53.2,1.1,65S0,80.9,0,110.7
		s0,34.1,1.1,45.8s2.1,20.2,5.3,26.6c3.2,7.5,6.4,13.8,12.8,19.2s12.8,9.6,19.2,12.8c7.5,3.2,14.9,4.3,26.6,5.3s16,1.1,45.8,1.1
		s34.1,0,45.8-1.1s20.2-2.1,26.6-5.3c7.5-3.2,13.8-6.4,19.2-12.8c5.3-6.4,9.6-12.8,12.8-19.2c3.2-7.5,4.3-14.9,5.3-26.6
		s1.1-16,1.1-45.8s0-34.1-1.1-45.8s-2.1-20.2-5.3-26.6c-3.2-7.5-6.4-13.8-12.8-19.2c-6.4-6.4-12.8-9.6-19.2-12.8
		c-7.5-3.2-14.9-4.3-26.6-5.3S141.6,0,110.7,0"/>
	<path id="XMLID_00000125570128337100416920000016769864469402797960_" class="st5" d="M110.7,54.3c-31.9,0-57.5,25.6-57.5,57.5
		s25.6,57.5,57.5,57.5s57.5-25.6,57.5-57.5S142.7,54.3,110.7,54.3 M110.7,148c-20.2,0-37.3-17-37.3-37.3s17-37.3,37.3-37.3
		s37.3,17,37.3,37.3S131,148,110.7,148"/>
	<path id="XMLID_00000022520057241389511180000013414555269034813072_" class="st5" d="M183.2,52.2c0,7.5-6.4,13.8-13.8,13.8
		c-7.5,0-13.8-6.4-13.8-13.8s6.4-13.8,13.8-13.8S183.2,44.7,183.2,52.2"/>
</g>
</svg>
