<?xml version="1.0" encoding="utf-8"?>
<!-- Generator: Adobe Illustrator 28.3.0, SVG Export Plug-In . SVG Version: 6.00 Build 0)  -->
<svg version="1.1" id="Layer_1" xmlns="http://www.w3.org/2000/svg" xmlns:xlink="http://www.w3.org/1999/xlink" x="0px" y="0px"
	 viewBox="0 0 221.5 221.5" style="enable-background:new 0 0 221.5 221.5;" xml:space="preserve">
<style type="text/css">
	.st0{fill:#272525;}
	.st1{fill:none;stroke:#000000;stroke-miterlimit:10;}
	.st2{stroke:#272525;stroke-width:1.5;stroke-miterlimit:10;}
	.st3{fill:#222221;}
	.st4{fill:#FFFFFF;}
	.st5{fill:#4E3535;}
	.st6{fill:#F0F0F0;}
	.st7{fill:#D4D4D4;}
	.st8{fill:#5F6368;}
	.st9{fill:#4285F4;}
	.st10{fill:#34A853;}
	.st11{fill:#FBBC04;}
	.st12{fill:#EA4335;}
	.st13{fill:#565656;}
	.st14{fill:#D50172;}
	.st15{fill:url(#SVGID_1_);}
	.st16{fill:#FF5A00;}
	.st17{fill:#EB001B;}
	.st18{fill:#F79E1B;}
	.st19{fill:#003087;}
	.st20{fill:#0070E0;}
	.st21{fill:#F4A929;}
	.st22{fill:#1B4DA2;}
	.st23{fill:#333333;}
	.st24{fill:#3A9BD9;}
	.st25{fill:#CC2131;}
</style>
<g id="XMLID_00000169560008560755997620000006836495842890873526_">
	<g id="XMLID_00000021108667802476917120000005175284054847936142_">
		<g id="XMLID_00000032630509391813697850000004036987873610499479_">
			<rect id="XMLID_00000049931740897648589790000001623765711080483747_" x="4.7" y="73.4" class="st5" width="45.5" height="148"/>
			<path id="XMLID_00000065785099364149104310000018389314434423585706_" class="st5" d="M26.8,53.6c15.2,0,26.8-12.8,26.8-26.8
				S42,0,26.8,0S0,12.8,0,26.8S11.7,53.6,26.8,53.6z"/>
		</g>
		<path id="XMLID_00000150087017080466232400000011711550127130741888_" class="st5" d="M123.6,143.4c0-21,9.3-33.8,28-33.8
			c16.3,0,24.5,11.7,24.5,33.8c0,21,0,78.1,0,78.1h45.5c0,0,0-53.6,0-94.4s-22.1-59.5-53.6-59.5c-31.5,0-44.3,24.5-44.3,24.5V72.3
			H79.3v148h44.3C123.6,221.5,123.6,166.7,123.6,143.4z"/>
	</g>
</g>
</svg>
