<?xml version="1.0" encoding="utf-8"?>
<!-- Generator: Adobe Illustrator 28.3.0, SVG Export Plug-In . SVG Version: 6.00 Build 0)  -->
<svg version="1.1" id="Layer_1" xmlns="http://www.w3.org/2000/svg" xmlns:xlink="http://www.w3.org/1999/xlink" x="0px" y="0px"
	 viewBox="0 0 351.3 233.1" style="enable-background:new 0 0 351.3 233.1;" xml:space="preserve">
<style type="text/css">
	.st0{fill:#272525;}
	.st1{fill:none;stroke:#000000;stroke-miterlimit:10;}
	.st2{stroke:#272525;stroke-width:1.5;stroke-miterlimit:10;}
	.st3{fill:#222221;}
	.st4{fill:#FFFFFF;}
	.st5{fill:#F0F0F0;}
	.st6{fill:#D4D4D4;}
	.st7{fill:#5F6368;}
	.st8{fill:#4285F4;}
	.st9{fill:#34A853;}
	.st10{fill:#FBBC04;}
	.st11{fill:#EA4335;}
	.st12{fill:#565656;}
	.st13{fill:#D50172;}
	.st14{fill:#333333;}
	.st15{fill:#FF5A00;}
	.st16{fill:#EB001B;}
	.st17{fill:#F79E1B;}
	.st18{fill:#003087;}
	.st19{fill:#0070E0;}
	.st20{fill:#F4A929;}
	.st21{fill:#1B4DA2;}
	.st22{fill:#3A9BD9;}
	.st23{fill:#CC2131;}
</style>
<g id="XMLID_00000057133537636457778140000016526752048343707294_">
	<path id="XMLID_00000014604758009810296850000007250514975388902826_" class="st0" d="M101.7,226.9c0,1.6,0.6,3.2,1.8,4.4
		c1.1,1.2,2.7,1.8,4.3,1.8l134.6,0c3.3,0,6-2.6,6.1-5.9c0-0.8,0.2-9.5-1.6-21.3l98.3,0c3.3,0,6-2.6,6.1-5.9
		c0.1-2.1,1.3-51.4-29.6-79.7c-2.2-2-5.5-2.1-7.8-0.3c-0.4,0.3-36.3,27.3-69.8,0c-2.3-1.9-5.6-1.8-7.8,0.1
		c-0.7,0.6-10.5,9.4-19.1,26.3c-2-0.9-4.3-0.6-6.1,0.7c-1.5,1.1-36.5,27.2-69.8,0c-1.6-1.3-3.8-1.7-5.7-1.1
		c-4.3-9.2-10.2-18.3-18.5-25.8c-2.2-2-5.5-2.1-7.8-0.3c-0.4,0.3-36.3,27.3-69.8,0c-2.3-1.9-5.6-1.8-7.8,0.1
		c-1.3,1.1-31,27.6-31.8,79.6c0,1.6,0.6,3.2,1.7,4.4c1.1,1.2,2.7,1.8,4.3,1.8l97.7,0C102.6,212.4,101.8,219.4,101.7,226.9z
		 M240.9,132.8c31.8,22.2,64.3,6.8,75.9-0.2c18.1,19.4,21.6,48.8,22.2,61.2l-94.5,0c-3.1-12.4-8.5-26.4-18.1-38.2
		C231.5,144.5,237.3,136.9,240.9,132.8z M138.1,160c31.8,22.2,64.3,6.8,75.9-0.2c18.1,19.4,21.6,48.8,22.2,61.2l-122.1,0
		C116.3,188.2,131.3,167.7,138.1,160z M12.4,193.8c2.1-32.7,17.1-53.2,24-61c31.8,22.2,64.3,6.8,75.9-0.2c6.2,6.7,10.7,14.6,14,22.5
		c-6,7.5-14.5,20.3-19.7,38.6L12.4,193.8z"/>
	<path id="XMLID_00000023258731094920234940000014220027949098280363_" class="st0" d="M15.8,57.6c0,31.7,25.8,57.5,57.6,57.5h0
		c15.4,0,29.8-6,40.7-16.9c1.5-1.5,2.9-3.1,4.2-4.7c4.3,27.6,28.1,48.8,56.8,48.8h0c15.4,0,29.8-6,40.7-16.9
		c9.1-9.1,14.7-20.6,16.3-33.1c10.5,13.8,27.1,22.8,45.8,22.8h0c15.4,0,29.8-6,40.7-16.9c10.9-10.9,16.9-25.3,16.9-40.7
		c0-31.7-25.8-57.5-57.6-57.5c-15.4,0-29.8,6-40.7,16.9c-9.1,9.1-14.7,20.6-16.3,33.1c-10.5-13.9-27.1-22.9-45.8-22.9
		c-15.4,0-29.8,6-40.7,16.9c-1.5,1.5-2.9,3.1-4.2,4.7C126,21.2,102.1,0,73.4,0C58,0,43.6,6,32.7,16.9C21.8,27.8,15.8,42.2,15.8,57.6
		z M245.8,25.5c8.6-8.6,20-13.3,32.1-13.3c25,0,45.4,20.4,45.4,45.4c0,12.1-4.7,23.5-13.3,32.1c-8.6,8.6-20,13.3-32.1,13.3h0
		c-25,0-45.4-20.4-45.4-45.4C232.5,45.5,237.3,34.1,245.8,25.5z M143,52.6c8.6-8.6,20-13.3,32.1-13.3c25,0,45.4,20.4,45.4,45.4
		c0,12.1-4.7,23.5-13.3,32.1c-8.6,8.6-20,13.3-32.1,13.3h0c-25,0-45.4-20.4-45.4-45.4C129.7,72.6,134.4,61.2,143,52.6z M73.4,12.2
		c25,0,45.4,20.4,45.4,45.4c0,12.1-4.7,23.5-13.3,32.1c-8.6,8.6-20,13.3-32.1,13.3h0C48.4,103,28,82.6,28,57.6
		c0-12.1,4.7-23.5,13.3-32.1C49.9,16.9,61.3,12.2,73.4,12.2z"/>
</g>
</svg>
