<?xml version="1.0" encoding="utf-8"?>
<!-- Generator: Adobe Illustrator 28.3.0, SVG Export Plug-In . SVG Version: 6.00 Build 0)  -->
<svg version="1.1" id="Layer_1" xmlns="http://www.w3.org/2000/svg" xmlns:xlink="http://www.w3.org/1999/xlink" x="0px" y="0px"
	 viewBox="0 0 38.3 25.4" style="enable-background:new 0 0 38.3 25.4;" xml:space="preserve">
<style type="text/css">
	.st0{fill:#272525;}
	.st1{fill:none;stroke:#000000;stroke-miterlimit:10;}
	.st2{stroke:#272525;stroke-width:1.5;stroke-miterlimit:10;}
</style>
<g id="XMLID_00000098189063928089280520000017325814576841186694_">
	<path id="XMLID_00000039844511726742416280000001325066966042154676_" class="st0" d="M11.1,24.8c0,0.2,0.1,0.3,0.2,0.5
		c0.1,0.1,0.3,0.2,0.5,0.2l14.7,0c0.4,0,0.7-0.3,0.7-0.6c0-0.1,0-1-0.2-2.3l10.7,0c0.4,0,0.7-0.3,0.7-0.6c0-0.2,0.1-5.6-3.2-8.7
		c-0.2-0.2-0.6-0.2-0.9,0c0,0-4,3-7.6,0c-0.3-0.2-0.6-0.2-0.9,0c-0.1,0.1-1.2,1-2.1,2.9c-0.2-0.1-0.5-0.1-0.7,0.1
		c-0.2,0.1-4,3-7.6,0c-0.2-0.1-0.4-0.2-0.6-0.1c-0.5-1-1.1-2-2-2.8c-0.2-0.2-0.6-0.2-0.9,0c0,0-4,3-7.6,0c-0.3-0.2-0.6-0.2-0.9,0
		c-0.1,0.1-3.4,3-3.5,8.7c0,0.2,0.1,0.3,0.2,0.5c0.1,0.1,0.3,0.2,0.5,0.2l10.7,0C11.2,23.2,11.1,23.9,11.1,24.8z M26.3,14.5
		c3.5,2.4,7,0.7,8.3,0c2,2.1,2.4,5.3,2.4,6.7l-10.3,0c-0.3-1.4-0.9-2.9-2-4.2C25.3,15.8,25.9,14.9,26.3,14.5z M15.1,17.5
		c3.5,2.4,7,0.7,8.3,0c2,2.1,2.4,5.3,2.4,6.7l-13.3,0C12.7,20.5,14.3,18.3,15.1,17.5z M1.4,21.1c0.2-3.6,1.9-5.8,2.6-6.7
		c3.5,2.4,7,0.7,8.3,0c0.7,0.7,1.2,1.6,1.5,2.5c-0.7,0.8-1.6,2.2-2.2,4.2L1.4,21.1z"/>
	<path id="XMLID_00000122707343059959668720000012082652782120450733_" class="st0" d="M1.7,6.3c0,3.5,2.8,6.3,6.3,6.3h0
		c1.7,0,3.3-0.7,4.4-1.8c0.2-0.2,0.3-0.3,0.5-0.5c0.5,3,3.1,5.3,6.2,5.3h0c1.7,0,3.3-0.7,4.4-1.8c1-1,1.6-2.3,1.8-3.6
		c1.1,1.5,3,2.5,5,2.5h0c1.7,0,3.3-0.7,4.4-1.8C36,9.5,36.6,8,36.6,6.3c0-3.5-2.8-6.3-6.3-6.3c-1.7,0-3.3,0.7-4.4,1.8
		c-1,1-1.6,2.3-1.8,3.6c-1.1-1.5-3-2.5-5-2.5c-1.7,0-3.3,0.7-4.4,1.8c-0.2,0.2-0.3,0.3-0.5,0.5C13.7,2.3,11.1,0,8,0
		C6.3,0,4.8,0.7,3.6,1.8C2.4,3,1.7,4.6,1.7,6.3z M26.8,2.8c0.9-0.9,2.2-1.5,3.5-1.5c2.7,0,5,2.2,5,5c0,1.3-0.5,2.6-1.5,3.5
		c-0.9,0.9-2.2,1.5-3.5,1.5h0c-2.7,0-5-2.2-5-5C25.4,5,25.9,3.7,26.8,2.8z M15.6,5.7c0.9-0.9,2.2-1.5,3.5-1.5c2.7,0,5,2.2,5,5
		c0,1.3-0.5,2.6-1.5,3.5c-0.9,0.9-2.2,1.5-3.5,1.5h0c-2.7,0-5-2.2-5-5C14.2,7.9,14.7,6.7,15.6,5.7z M8,1.3c2.7,0,5,2.2,5,5
		c0,1.3-0.5,2.6-1.5,3.5c-0.9,0.9-2.2,1.5-3.5,1.5h0c-2.7,0-5-2.2-5-5c0-1.3,0.5-2.6,1.5-3.5C5.4,1.8,6.7,1.3,8,1.3z"/>
</g>
</svg>
