<?xml version="1.0" encoding="utf-8"?>
<!-- Generator: Adobe Illustrator 28.3.0, SVG Export Plug-In . SVG Version: 6.00 Build 0)  -->
<svg version="1.1" id="Layer_1" xmlns="http://www.w3.org/2000/svg" xmlns:xlink="http://www.w3.org/1999/xlink" x="0px" y="0px"
	 viewBox="0 0 252.9 162.6" style="enable-background:new 0 0 252.9 162.6;" xml:space="preserve">
<style type="text/css">
	.st0{fill:#272525;}
	.st1{fill:none;stroke:#000000;stroke-miterlimit:10;}
	.st2{stroke:#272525;stroke-width:1.5;stroke-miterlimit:10;}
	.st3{fill:#222221;}
	.st4{fill:#FFFFFF;}
	.st5{fill:#4E3535;}
	.st6{fill:#F0F0F0;}
	.st7{fill:#D4D4D4;}
	.st8{fill:#5F6368;}
	.st9{fill:#4285F4;}
	.st10{fill:#34A853;}
	.st11{fill:#FBBC04;}
	.st12{fill:#EA4335;}
	.st13{fill:#565656;}
	.st14{fill:#D50172;}
	.st15{fill:url(#SVGID_1_);}
	.st16{fill:#FF5A00;}
	.st17{fill:#EB001B;}
	.st18{fill:#F79E1B;}
	.st19{fill:#003087;}
	.st20{fill:#0070E0;}
	.st21{fill:#F4A929;}
	.st22{fill:#1B4DA2;}
	.st23{fill:#333333;}
	.st24{fill:#3A9BD9;}
	.st25{fill:#CC2131;}
</style>
<g transform="translate(1.4065934065934016 1.4065934065934016) scale(2.81 2.81)">
	<path class="st4" d="M83.8-0.5H5.2c-3.2,0-5.7,2.6-5.7,5.7v6.1v2v30.1v2v6.1c0,3.2,2.6,5.7,5.7,5.7h78.5c3.2,0,5.7-2.6,5.7-5.7
		v-6.1v-2V13.4v-2V5.2C89.5,2.1,86.9-0.5,83.8-0.5z"/>
	<path class="st13" d="M20.6,8v40.8h24.8c15,0,23.1-7,23.1-20.4C68.4,14.5,59.6,8,45.3,8L20.6,8L20.6,8z M45.3,5.9
		c21.9,0,25.2,14.1,25.2,22.4c0,14.5-9,22.6-25.2,22.6c0,0-26.4,0-26.9,0c0-0.5,0-44.5,0-45C19,5.9,45.3,5.9,45.3,5.9z"/>
	<path class="st14" d="M35.8,22.1c0,1.3,0,3.3,0,4.6c0.7,0,1.4,0,1.4,0c1,0,1.9-0.3,1.9-2.3c0-2-1-2.3-1.9-2.3
		C37.3,22.1,36.5,22.1,35.8,22.1z M59.4,19.8h2.3c0,0,0,5.2,0,6.9c0.5,0,1.9,0,3.4,0c-0.9-12.5-10.8-15.2-19.7-15.2h-9.5v8.3h1.4
		c2.6,0,4.2,1.7,4.2,4.5c0,2.9-1.6,4.6-4.2,4.6h-1.4v16.6h9.5c14.5,0,19.6-6.7,19.8-16.6h-5.7V19.8z M53,24.9h1.7l-0.8-2.6h-0.1
		L53,24.9L53,24.9z M49.5,28.9l2.8-9.2h3.2l2.8,9.2h-2.4l-0.5-1.8h-3l-0.5,1.8H49.5L49.5,28.9z M48.4,26.7v2.3h-5.7v-9.2h5.5v2.3
		c0,0-1.9,0-3.2,0c0,0.3,0,0.7,0,1.1h3v2.3h-3c0,0.5,0,0.9,0,1.3C46.3,26.7,48.4,26.7,48.4,26.7L48.4,26.7z"/>
	<path class="st13" d="M32.9,24.4c0,2.7-2.2,4.9-4.9,4.9c-2.7,0-4.9-2.2-4.9-4.9c0-2.7,2.2-4.9,4.9-4.9
		C30.7,19.4,32.9,21.6,32.9,24.4 M24,45.6h7.9V31.5H24L24,45.6z"/>
</g>
</svg>
