<?xml version="1.0" encoding="utf-8"?>
<!-- Generator: Adobe Illustrator 28.3.0, SVG Export Plug-In . SVG Version: 6.00 Build 0)  -->
<svg version="1.1" id="Layer_1" xmlns="http://www.w3.org/2000/svg" xmlns:xlink="http://www.w3.org/1999/xlink" x="0px" y="0px"
	 viewBox="0 0 252.9 162.6" style="enable-background:new 0 0 252.9 162.6;" xml:space="preserve">
<style type="text/css">
	.st0{fill:#272525;}
	.st1{fill:none;stroke:#000000;stroke-miterlimit:10;}
	.st2{stroke:#272525;stroke-width:1.5;stroke-miterlimit:10;}
	.st3{fill:#222221;}
	.st4{fill:#FFFFFF;}
	.st5{fill:#4E3535;}
	.st6{fill:#F0F0F0;}
	.st7{fill:#D4D4D4;}
	.st8{fill:#5F6368;}
	.st9{fill:#4285F4;}
	.st10{fill:#34A853;}
	.st11{fill:#FBBC04;}
	.st12{fill:#EA4335;}
	.st13{fill:#565656;}
	.st14{fill:#D50172;}
	.st15{fill:url(#SVGID_1_);}
	.st16{fill:#FF5A00;}
	.st17{fill:#EB001B;}
	.st18{fill:#F79E1B;}
	.st19{fill:#003087;}
	.st20{fill:#0070E0;}
	.st21{fill:#F4A929;}
	.st22{fill:#1B4DA2;}
	.st23{fill:#333333;}
	.st24{fill:#3A9BD9;}
	.st25{fill:#CC2131;}
</style>
<g transform="translate(1.4065934065934016 1.4065934065934016) scale(2.81 2.81)">
	<path class="st4" d="M83.8-0.5H5.2c-3.2,0-5.7,2.6-5.7,5.7v6.1v2v30.1v2v6.1c0,3.2,2.6,5.7,5.7,5.7h78.5c3.2,0,5.7-2.6,5.7-5.7
		v-6.1v-2V13.4v-2V5.2C89.5,2.1,86.9-0.5,83.8-0.5z"/>
	<radialGradient id="SVGID_1_" cx="44.5514" cy="44.1614" r="71.1264" gradientUnits="userSpaceOnUse">
		<stop  offset="0.5744" style="stop-color:#181415"/>
		<stop  offset="0.7977" style="stop-color:#181415"/>
		<stop  offset="1" style="stop-color:#181415"/>
	</radialGradient>
	<path class="st15" d="M19.4,48.6v-4.1c0-1.6-0.9-2.6-2.6-2.6c-0.8,0-1.7,0.3-2.3,1.2c-0.5-0.7-1.1-1.2-2.2-1.2
		c-0.7,0-1.4,0.2-1.9,0.9v-0.8H9.1v6.5h1.4V45c0-1.2,0.6-1.7,1.6-1.7s1.4,0.6,1.4,1.7v3.6h1.4V45c0-1.2,0.7-1.7,1.6-1.7
		c0.9,0,1.4,0.6,1.4,1.7v3.6H19.4L19.4,48.6z M40.4,42.1h-2.3v-2h-1.4v2h-1.3v1.3h1.3v3c0,1.5,0.6,2.4,2.2,2.4
		c0.6,0,1.3-0.2,1.8-0.5l-0.4-1.2c-0.4,0.3-0.9,0.3-1.2,0.3c-0.7,0-0.9-0.4-0.9-1.1v-2.9h2.3L40.4,42.1L40.4,42.1L40.4,42.1z
		 M52.5,42c-0.8,0-1.4,0.4-1.7,0.9v-0.8h-1.4v6.5h1.4V45c0-1.1,0.5-1.7,1.4-1.7c0.3,0,0.6,0.1,0.9,0.1l0.4-1.4
		C53.1,42,52.7,42,52.5,42L52.5,42z M34.3,42.7c-0.7-0.5-1.6-0.7-2.6-0.7c-1.6,0-2.7,0.8-2.7,2.1c0,1.1,0.8,1.7,2.2,1.9l0.7,0.1
		c0.7,0.1,1.2,0.3,1.2,0.7c0,0.5-0.5,0.8-1.5,0.8s-1.7-0.3-2.2-0.7l-0.7,1.1c0.7,0.5,1.8,0.8,2.8,0.8c1.9,0,3-0.9,3-2.1
		c0-1.2-0.9-1.8-2.2-2l-0.7-0.1c-0.6-0.1-1.1-0.2-1.1-0.6c0-0.5,0.5-0.7,1.2-0.7c0.8,0,1.6,0.3,2,0.5L34.3,42.7L34.3,42.7z M72,42
		c-0.8,0-1.4,0.4-1.7,0.9v-0.8h-1.4v6.5h1.4V45c0-1.1,0.5-1.7,1.4-1.7c0.3,0,0.6,0.1,0.9,0.1l0.4-1.3C72.7,42,72.3,42,72,42L72,42z
		 M53.9,45.4c0,2,1.4,3.4,3.5,3.4c0.9,0,1.6-0.2,2.3-0.7L59,46.9c-0.5,0.4-1.1,0.6-1.7,0.6c-1.2,0-2-0.8-2-2.1c0-1.2,0.8-2,2-2.1
		c0.6,0,1.2,0.2,1.7,0.6l0.7-1.2C59,42.2,58.3,42,57.3,42C55.2,42,53.9,43.4,53.9,45.4L53.9,45.4L53.9,45.4z M67,45.4v-3.2h-1.4v0.8
		c-0.5-0.6-1.2-0.9-2-0.9c-1.8,0-3.2,1.4-3.2,3.4s1.4,3.4,3.2,3.4c0.9,0,1.6-0.3,2-0.9v0.8H67V45.4L67,45.4z M61.8,45.4
		c0-1.2,0.7-2.1,2-2.1c1.2,0,2,0.9,2,2.1c0,1.2-0.8,2.1-2,2.1C62.5,47.4,61.8,46.5,61.8,45.4L61.8,45.4z M44.8,42
		c-1.9,0-3.2,1.4-3.2,3.4c0,2,1.4,3.4,3.3,3.4c0.9,0,1.9-0.3,2.6-0.9l-0.7-1c-0.5,0.4-1.2,0.7-1.9,0.7c-0.9,0-1.8-0.4-2-1.6h4.8
		c0-0.2,0-0.3,0-0.5C47.9,43.3,46.6,42,44.8,42L44.8,42L44.8,42z M44.8,43.2c0.9,0,1.5,0.5,1.6,1.6h-3.4
		C43.2,43.9,43.8,43.2,44.8,43.2L44.8,43.2z M80.1,45.4v-5.8h-1.4v3.4c-0.5-0.6-1.2-0.9-2-0.9c-1.8,0-3.2,1.4-3.2,3.4
		s1.4,3.4,3.2,3.4c0.9,0,1.6-0.3,2-0.9v0.8h1.4V45.4L80.1,45.4z M74.8,45.4c0-1.2,0.7-2.1,2-2.1c1.2,0,2,0.9,2,2.1
		c0,1.2-0.8,2.1-2,2.1C75.6,47.4,74.8,46.5,74.8,45.4L74.8,45.4z M27.4,45.4v-3.2H26v0.8c-0.5-0.6-1.1-0.9-2-0.9
		c-1.8,0-3.2,1.4-3.2,3.4s1.4,3.4,3.2,3.4c0.9,0,1.6-0.3,2-0.9v0.8h1.4V45.4L27.4,45.4z M22.1,45.4c0-1.2,0.7-2.1,2-2.1
		c1.1,0,2,0.9,2,2.1c0,1.2-0.8,2.1-2,2.1C22.8,47.4,22.1,46.5,22.1,45.4z"/>
	<rect x="38.1" y="10.3" class="st16" width="12.7" height="22.9"/>
	<path class="st17" d="M39,21.8c0-4.6,2.2-8.8,5.5-11.4c-2.5-1.9-5.6-3.1-9-3.1c-8,0-14.5,6.5-14.5,14.5s6.5,14.5,14.5,14.5
		c3.4,0,6.5-1.2,9-3.1C41.1,30.6,39,26.4,39,21.8z"/>
	<path class="st18" d="M68,21.8c0,8-6.5,14.5-14.5,14.5c-3.4,0-6.5-1.2-9-3.1c3.4-2.7,5.5-6.8,5.5-11.4s-2.2-8.8-5.5-11.4
		c2.5-1.9,5.6-3.1,9-3.1C61.5,7.2,68,13.8,68,21.8z"/>
</g>
</svg>
