<?xml version="1.0" encoding="utf-8"?>
<!-- Generator: Adobe Illustrator 28.3.0, SVG Export Plug-In . SVG Version: 6.00 Build 0)  -->
<svg version="1.1" id="Layer_1" xmlns="http://www.w3.org/2000/svg" xmlns:xlink="http://www.w3.org/1999/xlink" x="0px" y="0px"
	 viewBox="0 0 252.9 162.6" style="enable-background:new 0 0 252.9 162.6;" xml:space="preserve">
<style type="text/css">
	.st0{fill:#272525;}
	.st1{fill:none;stroke:#000000;stroke-miterlimit:10;}
	.st2{stroke:#272525;stroke-width:1.5;stroke-miterlimit:10;}
	.st3{fill:#222221;}
	.st4{fill:#FFFFFF;}
	.st5{fill:#4E3535;}
	.st6{fill:#F0F0F0;}
	.st7{fill:#D4D4D4;}
	.st8{fill:#5F6368;}
	.st9{fill:#4285F4;}
	.st10{fill:#34A853;}
	.st11{fill:#FBBC04;}
	.st12{fill:#EA4335;}
	.st13{fill:#565656;}
	.st14{fill:#D50172;}
	.st15{fill:url(#SVGID_1_);}
	.st16{fill:#FF5A00;}
	.st17{fill:#EB001B;}
	.st18{fill:#F79E1B;}
	.st19{fill:#003087;}
	.st20{fill:#0070E0;}
	.st21{fill:#F4A929;}
	.st22{fill:#1B4DA2;}
	.st23{fill:#333333;}
	.st24{fill:#3A9BD9;}
	.st25{fill:#CC2131;}
</style>
<g transform="translate(1.4065934065934016 1.4065934065934016) scale(2.81 2.81)">
	<path class="st4" d="M83.8-0.5H5.2c-3.2,0-5.7,2.6-5.7,5.7v6.1v2v30.1v2v6.1c0,3.2,2.6,5.7,5.7,5.7h78.5c3.2,0,5.7-2.6,5.7-5.7
		v-6.1v-2V13.4v-2V5.2C89.5,2.1,86.9-0.5,83.8-0.5z"/>
	<path class="st19" d="M11.6,18.8c-0.2,0-0.4,0.2-0.4,0.4L8.8,34.4c0,0.2,0.1,0.4,0.3,0.4c0,0,0,0,0.1,0H12c0.2,0,0.4-0.2,0.4-0.4
		l0.7-4.5c0-0.2,0.2-0.4,0.4-0.4h2.6c3,0,5.6-2.2,6.1-5.2c0.5-3-1.9-5.7-5.2-5.7L11.6,18.8L11.6,18.8z M14.4,22.2h2.1
		c1.7,0,2.3,1,2.1,2.1c-0.2,1.1-1,1.9-2.7,1.9h-2.1L14.4,22.2z M28,23.2c-0.7,0-1.5,0.2-2.5,0.5c-2.1,0.9-3.2,2.7-3.6,4.1
		c0,0-1.4,4.1,1.7,6.3c0,0,2.9,2.2,6.2-0.1l-0.1,0.4c0,0.2,0.1,0.4,0.3,0.4c0,0,0,0,0.1,0h2.7c0.2,0,0.4-0.2,0.4-0.4l1.6-10.4
		c0-0.2-0.1-0.4-0.3-0.4c0,0,0,0-0.1,0h-2.7c-0.2,0-0.4,0.2-0.4,0.4l-0.1,0.6C31.3,24.5,30.2,23.2,28,23.2L28,23.2z M28.1,26.5
		c0.3,0,0.6,0,0.9,0.1c1.2,0.4,1.8,1.5,1.6,2.7c-0.2,1.5-1.5,2.6-3,2.6c-0.3,0-0.6,0-0.9-0.1c-1.2-0.4-1.8-1.5-1.6-2.7
		C25.3,27.6,26.5,26.5,28.1,26.5L28.1,26.5z"/>
	<path class="st20" d="M50.6,18.8c-0.2,0-0.4,0.2-0.4,0.4l-2.4,15.2c0,0.2,0.1,0.4,0.3,0.4c0,0,0,0,0.1,0H51c0.2,0,0.4-0.2,0.4-0.4
		l0.7-4.5c0-0.2,0.2-0.4,0.4-0.4h2.6c3,0,5.6-2.2,6.1-5.2c0.5-3-1.9-5.7-5.2-5.7L50.6,18.8L50.6,18.8z M53.3,22.2h2.1
		c1.7,0,2.3,1,2.1,2.1c-0.2,1.1-1,1.9-2.7,1.9h-2.1L53.3,22.2z M67,23.2c-0.7,0-1.5,0.2-2.5,0.5c-2.1,0.9-3.2,2.7-3.6,4.1
		c0,0-1.4,4.1,1.7,6.3c0,0,2.9,2.2,6.2-0.1l-0.1,0.4c0,0.2,0.1,0.4,0.3,0.4c0,0,0,0,0.1,0h2.7c0.2,0,0.4-0.2,0.4-0.4l1.6-10.4
		c0-0.2-0.1-0.4-0.3-0.4c0,0,0,0-0.1,0h-2.7c-0.2,0-0.4,0.2-0.4,0.4l-0.1,0.6C70.3,24.5,69.1,23.2,67,23.2L67,23.2z M67.1,26.5
		c0.3,0,0.6,0,0.8,0.1c1.2,0.4,1.8,1.5,1.6,2.7c-0.2,1.5-1.5,2.6-3,2.6c-0.3,0-0.6,0-0.8-0.1c-1.2-0.4-1.8-1.5-1.6-2.7
		C64.3,27.6,65.5,26.5,67.1,26.5L67.1,26.5z"/>
	<path class="st19" d="M36.2,23.6c-0.2,0-0.4,0.2-0.3,0.4l3,9.2l-2.7,4.3c-0.1,0.2,0,0.5,0.3,0.5h3.2c0.2,0,0.4-0.1,0.5-0.3
		l8.3-13.7c0.1-0.2,0-0.5-0.3-0.5h-3.2c-0.2,0-0.4,0.1-0.5,0.3l-3.3,5.5l-1.7-5.5c-0.1-0.2-0.2-0.3-0.4-0.3L36.2,23.6z"/>
	<path class="st20" d="M77,18.8c-0.2,0-0.4,0.2-0.4,0.4l-2.4,15.2c0,0.2,0.1,0.4,0.3,0.4c0,0,0,0,0.1,0h2.9c0.2,0,0.4-0.2,0.4-0.4
		l2.4-15.2c0-0.2-0.1-0.4-0.3-0.4c0,0,0,0-0.1,0L77,18.8L77,18.8z"/>
</g>
</svg>
