<?xml version="1.0" encoding="utf-8"?>
<!-- Generator: Adobe Illustrator 28.3.0, SVG Export Plug-In . SVG Version: 6.00 Build 0)  -->
<svg version="1.1" id="Layer_1" xmlns="http://www.w3.org/2000/svg" xmlns:xlink="http://www.w3.org/1999/xlink" x="0px" y="0px"
	 viewBox="0 0 119.7 122.3" style="enable-background:new 0 0 119.7 122.3;" xml:space="preserve">
<style type="text/css">
	.st0{fill:#59C5C5;}
	.st1{fill:none;stroke:#000000;stroke-miterlimit:10;}
	.st2{fill:#FFFFFF;}
	.st3{opacity:0.8;}
	.st4{fill:none;stroke:#000000;stroke-width:5;stroke-miterlimit:10;}
	.st5{stroke:#000000;stroke-width:0.25;}
	.st6{fill:none;stroke:#FFFFFF;stroke-width:6;stroke-miterlimit:10;}
	.st7{fill:none;stroke:#000000;stroke-width:6;stroke-miterlimit:10;}
	.st8{fill:#FAA721;}
</style>
<g>
	<circle cx="107.8" cy="11.9" r="11.9"/>
	<path class="st8" d="M103,66.9c-2.3,21.8-20.7,38.8-43,38.8c-23.9,0-43.3-19.4-43.3-43.3c0-22.4,17-40.8,38.8-43V2.6
		C24.4,4.9,0,30.8,0,62.4c0,33.1,26.8,60,60,60c31.6,0,57.5-24.4,59.8-55.5H103z"/>
	<path d="M110.4,30.8c-11.7,0-21.1-9.3-21.4-20.9c-7.4-4.1-15.7-6.7-24.5-7.3v16.7c20.3,2.1,36.4,18.2,38.5,38.5h16.7
		c-0.7-9.9-3.9-19.1-8.8-27.1C110.7,30.8,110.6,30.8,110.4,30.8z"/>
	<g>
		<g>
			<g>
				<path d="M57,38.2c0,7.1,0,14.2,0,21.2c0,1,0,2,0,3c0,1.5,1.3,2.9,2.9,2.9c1.6-0.1,2.9-1.3,2.9-2.9c0-7.1,0-14.2,0-21.2
					c0-1,0-2,0-3c0-1.5-1.3-2.9-2.9-2.9C58.3,35.4,57,36.6,57,38.2L57,38.2z"/>
			</g>
			<g>
				<line x1="74.1" y1="76.6" x2="59.9" y2="62.4"/>
				<path d="M76.1,74.6c-4.1-4.1-8.3-8.3-12.4-12.4c-0.6-0.6-1.2-1.2-1.8-1.8c-1.1-1.1-3-1.1-4.1,0c-1.1,1.1-1.1,2.9,0,4.1
					c4.1,4.1,8.3,8.3,12.4,12.4c0.6,0.6,1.2,1.2,1.8,1.8c1.1,1.1,3,1.1,4.1,0C77.1,77.5,77.2,75.7,76.1,74.6L76.1,74.6z"/>
			</g>
		</g>
	</g>
</g>
</svg>
