<?xml version="1.0" encoding="utf-8"?>
<!-- Generator: Adobe Illustrator 28.3.0, SVG Export Plug-In . SVG Version: 6.00 Build 0)  -->
<svg version="1.1" id="Layer_1" xmlns="http://www.w3.org/2000/svg" xmlns:xlink="http://www.w3.org/1999/xlink" x="0px" y="0px"
	 viewBox="0 0 351.4 70.1" style="enable-background:new 0 0 351.4 70.1;" xml:space="preserve">
<style type="text/css">
	.st0{fill:#59C5C5;}
	.st1{fill:none;stroke:#000000;stroke-miterlimit:10;}
	.st2{fill:#FFFFFF;}
	.st3{opacity:0.8;}
	.st4{fill:none;stroke:#000000;stroke-width:5;stroke-miterlimit:10;}
	.st5{stroke:#000000;stroke-width:0.25;}
	.st6{fill:none;stroke:#FFFFFF;stroke-width:6;stroke-miterlimit:10;}
	.st7{fill:none;stroke:#000000;stroke-width:6;stroke-miterlimit:10;}
	.st8{fill:#FAA721;}
	.st9{clip-path:url(#SVGID_00000021078195688103297260000004495286875451643527_);}
	.st10{fill:#4E3535;}
	.st11{fill:#F7941D;}
	.st12{fill:none;}
</style>
<g id="Group_849" transform="translate(-68 -36)">
	<g id="Group_847" transform="translate(68 36)">
		<g>
			<defs>
				<rect id="SVGID_1_" width="68.6" height="70.1"/>
			</defs>
			<clipPath id="SVGID_00000052811628663854729030000000688670166890245015_">
				<use xlink:href="#SVGID_1_"  style="overflow:visible;"/>
			</clipPath>
			<g id="Group_846" style="clip-path:url(#SVGID_00000052811628663854729030000000688670166890245015_);">
				<path id="Path_383" class="st10" d="M68.6,6.8c0,3.8-3.1,6.8-6.8,6.8c-3.8,0-6.8-3.1-6.8-6.8C55,3.1,58,0,61.8,0
					C65.5,0,68.6,3,68.6,6.8C68.6,6.8,68.6,6.8,68.6,6.8"/>
				<path id="Path_384" class="st11" d="M59,38.3c-1.4,13.6-13.6,23.5-27.2,22.1S8.3,46.8,9.7,33.1c1.2-11.7,10.4-20.9,22.1-22.1
					V1.5C12.9,2.9-1.3,19.4,0.1,38.3S18,71.4,36.9,70c16.9-1.3,30.4-14.7,31.7-31.7H59z"/>
				<path id="Path_385" class="st10" d="M63.2,17.6c-6.7,0-12.1-5.3-12.3-12c-4.3-2.4-9.1-3.8-14-4.2v9.6
					C48.6,12.3,57.8,21.5,59,33.1h9.6c-0.4-5.5-2.1-10.8-5.1-15.5C63.4,17.6,63.3,17.6,63.2,17.6"/>
				<path id="Path_386" class="st10" d="M32.7,21.9v13.9c0,0.9,0.7,1.6,1.6,1.6c0.9,0,1.6-0.7,1.6-1.6c0,0,0,0,0,0V21.9
					c0-0.9-0.7-1.6-1.6-1.6C33.4,20.2,32.7,21,32.7,21.9"/>
				<line id="Line_39" class="st12" x1="42.4" y1="43.9" x2="34.3" y2="35.8"/>
				<path id="Path_387" class="st10" d="M43.6,42.7l-7.1-7.1l-1-1c-0.6-0.6-1.7-0.6-2.3,0s-0.6,1.7,0,2.3l7.1,7.1l1,1
					c0.6,0.6,1.7,0.6,2.3,0S44.2,43.4,43.6,42.7"/>
			</g>
		</g>
	</g>
	<g id="Group_848" transform="translate(0 0.283)">
		<path id="Path_388" class="st10" d="M162,63.4h9.3c6.7,0,11.3-4,11.3-10.2s-4.6-10.2-11.3-10.2H162V63.4z M166.7,59.5V46.8h4.3
			c4.1,0,6.7,2.4,6.7,6.3s-2.7,6.3-6.7,6.3H166.7z M202.9,55.6c0.2-4.3-3.1-7.9-7.4-8.1c-0.3,0-0.5,0-0.8,0c-4.8,0-8.4,3.4-8.4,8.1
			c0,4.7,3.5,8.1,9,8.1c2.4,0.2,4.8-0.8,6.5-2.5l-2.4-2.6c-1,1-2.5,1.6-3.9,1.5c-2.4,0-4.1-1.2-4.5-3.1h11.9
			C202.8,56.4,202.9,55.9,202.9,55.6z M194.8,50.9c1.9-0.1,3.6,1.3,3.8,3.3h-7.7C191.1,52.2,192.8,50.8,194.8,50.9z M232,63.4h5.5
			l-9-11.3l8.5-9.1h-5.2l-9,9.5v-9.5H218v20.4h4.7v-5.2l2.7-2.9L232,63.4z M241,63.4h4.5V41.7H241L241,63.4z M259,63.6
			c5,0,8.6-3.4,8.6-8.1s-3.6-8.1-8.6-8.1c-5,0-8.6,3.4-8.6,8.1S254,63.6,259,63.6L259,63.6z M259,59.9c-2.3,0-4-1.6-4-4.3
			c0-2.7,1.8-4.3,4-4.3c2.3,0,4,1.6,4,4.3C263,58.2,261.3,59.9,259,59.9L259,59.9z M284.1,63.4h5.5l-7.1-9l6.5-6.6h-5.4l-6.6,6.3
			V41.7h-4.5v21.6h4.5v-4l2.2-2.2L284.1,63.4z"/>
		<path id="Path_389" class="st10" d="M179.9,74.1l-7.4,16.8l-7.3-16.8H162l9,20.4h2.9l9-20.4H179.9z M199.6,86.9c0-4.8-3.2-8-7.6-8
			c-4.2-0.1-7.7,3.2-7.8,7.4c0,0.2,0,0.3,0,0.5c0,4.6,3.3,7.9,8.3,7.9c2.3,0.1,4.5-0.8,6.1-2.5l-1.5-1.8c-1.1,1.2-2.8,1.9-4.5,1.9
			c-3.1,0-5.2-1.8-5.6-4.5h12.5C199.5,87.5,199.6,87.1,199.6,86.9z M191.9,81.3c2.6-0.1,4.8,1.9,5,4.4H187
			C187.2,83.2,189.4,81.2,191.9,81.3L191.9,81.3z M207.9,81.7v-2.6h-2.7v15.5h2.8v-7.7c0-3.4,1.9-5.2,4.9-5.2c0.2,0,0.4,0,0.6,0
			v-2.7C210.8,78.9,208.9,79.9,207.9,81.7L207.9,81.7z M230.7,79.1v2.4c-1.4-1.7-3.5-2.6-5.7-2.5c-4.5,0-7.8,3-7.8,7.5
			s3.4,7.5,7.8,7.5c2.1,0.1,4.2-0.8,5.6-2.4v1.2c0,3.5-1.7,5.2-5.3,5.2c-2.2,0-4.3-0.7-5.9-2l-1.3,2.2c1.7,1.5,4.5,2.3,7.4,2.3
			c5.2,0,8-2.5,8-7.9V79.1L230.7,79.1z M225.3,91.4c-2.7,0.2-5.1-1.9-5.3-4.6c0-0.1,0-0.3,0-0.4c0-3,2.2-5,5.3-5c3.1,0,5.3,2,5.3,5
			c0,2.7-2.1,5-4.9,5.1C225.6,91.4,225.4,91.4,225.3,91.4z M246.1,78.9c-2.3-0.1-4.5,0.6-6.4,2l1.2,2.1c1.4-1.1,3.1-1.7,4.9-1.7
			c2.8,0,4.1,1.4,4.1,3.7v0.6h-4.4c-4.6,0-6.2,2-6.2,4.5c0,2.7,2.2,4.5,5.7,4.5c2.4,0,4.1-0.8,5.1-2.2v2h2.7v-9.3
			C252.7,81,250.3,78.9,246.1,78.9z M245.4,92.5c-2.1,0-3.4-1-3.4-2.5c0-1.3,0.8-2.4,3.6-2.4h4.3v2.2
			C249.1,91.6,247.3,92.7,245.4,92.5L245.4,92.5z M271.5,72.9v8.5c-1.3-1.6-3.3-2.6-5.4-2.5c-4.1-0.2-7.6,3-7.8,7.2
			c0,0.2,0,0.5,0,0.7c-0.2,4.2,3,7.7,7.1,7.9c0.2,0,0.5,0,0.7,0c2.2,0.1,4.2-0.9,5.5-2.6v2.4h2.7V72.9L271.5,72.9z M266.3,92.3
			c-2.8,0.1-5.2-2.2-5.2-5c0-0.2,0-0.3,0-0.5c-0.1-2.9,2.1-5.3,5-5.4c2.9-0.1,5.3,2.1,5.4,5c0,0.1,0,0.3,0,0.4
			c0.2,2.8-1.9,5.3-4.8,5.4C266.6,92.3,266.5,92.3,266.3,92.3z M295.3,86.9c0-4.8-3.2-8-7.6-8c-4.2-0.1-7.7,3.2-7.8,7.4
			c0,0.2,0,0.3,0,0.5c0,4.6,3.3,7.9,8.3,7.9c2.3,0.1,4.5-0.8,6.1-2.5l-1.5-1.8c-1.1,1.2-2.8,1.9-4.5,1.9c-3.1,0-5.2-1.8-5.6-4.5
			h12.5C295.3,87.5,295.3,87.1,295.3,86.9L295.3,86.9z M287.7,81.3c2.6-0.1,4.8,1.9,5,4.4h-9.9C282.9,83.2,285.1,81.2,287.7,81.3
			L287.7,81.3z M303.6,81.7v-2.6h-2.7v15.5h2.8v-7.7c0-3.4,1.9-5.2,4.9-5.2c0.2,0,0.4,0,0.6,0v-2.7
			C306.5,78.9,304.6,79.9,303.6,81.7L303.6,81.7z M317.1,81.7v-2.6h-2.7v15.5h2.8v-7.7c0-3.4,1.9-5.2,4.9-5.2c0.2,0,0.4,0,0.6,0
			v-2.7C320,78.9,318.1,79.9,317.1,81.7L317.1,81.7z M339.7,79.1v8c0,3.3-1.9,5.1-4.8,5.1c-2.7,0-4.2-1.5-4.2-4.5v-8.6H328V88
			c0,4.5,2.7,6.7,6.6,6.7c2.1,0.1,4-0.9,5.2-2.5v2.3h2.7V79.1L339.7,79.1z M351,76.1c1,0,1.8-0.9,1.7-1.9c0-1-0.9-1.8-1.9-1.7
			c-1,0-1.8,0.9-1.7,1.8C349.1,75.3,350,76.1,351,76.1C351,76.1,351,76.1,351,76.1L351,76.1z M349.6,94.5h2.8V79.1h-2.8V94.5z
			 M378.8,78.9c-2.3-0.1-4.6,1-5.9,2.9c-1.1-1.9-3.2-3-5.4-2.9c-2.1-0.1-4.1,0.8-5.3,2.4v-2.3h-2.7v15.5h2.8v-8
			c0-3.4,1.8-5.1,4.6-5.1c2.5,0,4,1.5,4,4.5v8.6h2.8v-8c0-3.4,1.8-5.1,4.6-5.1c2.5,0,4,1.5,4,4.5v8.6h2.8v-8.9
			C385.2,81.1,382.6,78.9,378.8,78.9L378.8,78.9z M399.9,91.6c-0.6,0.5-1.4,0.7-2.2,0.7c-1.3,0.1-2.3-0.8-2.4-2.1c0-0.2,0-0.3,0-0.5
			v-8.4h4.4v-2.3h-4.4v-3.4h-2.8v3.4h-2.6v2.3h2.6v8.5c0,3.1,1.8,4.8,4.9,4.8c1.2,0,2.4-0.3,3.4-1.1L399.9,91.6z M419.4,86.9
			c0-4.8-3.2-8-7.6-8c-4.2-0.1-7.7,3.2-7.8,7.4c0,0.2,0,0.3,0,0.5c0,4.6,3.3,7.9,8.3,7.9c2.3,0.1,4.5-0.8,6.1-2.5l-1.5-1.8
			c-1.1,1.2-2.8,1.9-4.5,1.9c-3.1,0-5.2-1.8-5.6-4.5h12.5C419.3,87.5,419.4,87.1,419.4,86.9L419.4,86.9z M411.7,81.3
			c2.6-0.1,4.8,1.9,5,4.4h-9.9C407,83.2,409.1,81.2,411.7,81.3L411.7,81.3z"/>
	</g>
</g>
</svg>
